<?xml version="1.0" encoding="UTF-8"?>
<svg width="160px" height="90px" viewBox="0 0 160 90" version="1.1" xmlns="http://www.w3.org/2000/svg" xmlns:xlink="http://www.w3.org/1999/xlink">
    <!-- Generator: Sketch 58 (84663) - https://sketch.com -->
    <title>five</title>
    <desc>Created with Sketch.</desc>
    <g id="Page-1" stroke="none" stroke-width="1" fill="none" fill-rule="evenodd">
        <g id="a5" fill="#000000" fill-rule="nonzero">
            <path d="M88.2265625,30.9570312 L87.2773438,27.0898438 L72.7929688,27.0898438 L71.7382812,38.3046875 C74.6679834,36.7812424 77.7617025,36.0195312 81.0195312,36.0195312 C84.76955,36.0195312 88.0683451,36.7753831 90.9160156,38.2871094 C93.7636861,39.7988357 95.9667891,41.896471 97.5253906,44.5800781 C99.0839922,47.2636853 99.8632812,50.1874842 99.8632812,53.3515625 C99.8632812,57.0078308 99.025399,60.2421734 97.3496094,63.0546875 C95.6738197,65.8672016 93.289078,68.0117114 90.1953125,69.4882812 C87.101547,70.9648511 83.4922081,71.703125 79.3671875,71.703125 C73.7890346,71.703125 69.2480644,70.3496229 65.7441406,67.6425781 C62.2402169,64.9355333 60.1484409,61.1562743 59.46875,56.3046875 L70.7890625,54.9335938 C71.6093791,60.0664319 74.199197,62.6328125 78.5585938,62.6328125 C81.1601693,62.6328125 83.1406182,61.9062573 84.5,60.453125 C85.8593818,58.9999927 86.5390625,56.9257947 86.5390625,54.2304688 C86.5390625,48.277314 83.9726819,45.3007812 78.8398438,45.3007812 C75.8163911,45.3007812 73.2734478,46.7187358 71.2109375,49.5546875 L61.859375,44.9492188 L63.7226562,18.0195312 L97.2265625,18.0195312 L97.2265625,30.9570312 L88.2265625,30.9570312 Z" id="5"></path>
        </g>
    </g>
</svg>