<?xml version="1.0" encoding="UTF-8"?>
<svg width="160px" height="90px" viewBox="0 0 160 90" version="1.1" xmlns="http://www.w3.org/2000/svg" xmlns:xlink="http://www.w3.org/1999/xlink">
    <!-- Generator: Sketch 58 (84663) - https://sketch.com -->
    <title>three</title>
    <desc>Created with Sketch.</desc>
    <g id="Page-1" stroke="none" stroke-width="1" fill="none" fill-rule="evenodd">
        <g id="a3" fill="#000000" fill-rule="nonzero">
            <path d="M97.7890625,31.2734375 C97.7890625,36.5937766 95.1289329,40.4960813 89.8085938,42.9804688 C96.464877,45.2539176 99.7929688,49.4609068 99.7929688,55.6015625 C99.7929688,58.7656408 98.9433679,61.5722534 97.2441406,64.0214844 C95.5449134,66.4707154 93.1836089,68.3632746 90.1601562,69.6992188 C87.1367036,71.0351629 83.7265815,71.703125 79.9296875,71.703125 C67.2499366,71.703125 60.4531296,65.925839 59.5390625,54.3710938 L71.0703125,53.421875 C71.1171877,59.6094059 73.6601311,62.703125 78.6992188,62.703125 C81.0195429,62.703125 82.9062427,61.9765698 84.359375,60.5234375 C85.8125073,59.0703125 86.5390625,57.2773544 86.5390625,55.1445312 C86.5390625,52.9413952 85.7714921,51.1543037 84.2363281,49.7832031 C82.7011642,48.4121025 80.5273578,47.7265625 77.7148438,47.7265625 L77.3829686,47.7335937 C76.8542198,47.7523436 75.9804748,47.8085933 74.7617188,47.9023438 L74.7617188,38.234375 C78.0195475,38.1874998 80.5624909,37.6132868 82.390625,36.5117188 C84.2187591,35.4101507 85.1328125,33.8281353 85.1328125,31.765625 C85.1328125,30.1249918 84.5175843,28.7890677 83.2871094,27.7578125 C82.0566345,26.7265573 80.5039156,26.2109375 78.6289062,26.2109375 C74.4101352,26.2109375 72.3007812,28.5663827 72.3007812,33.2773438 L61.15625,32.328125 C61.5312519,27.5234135 63.3359213,23.7793103 66.5703125,21.0957031 C69.8047037,18.412096 74.070286,17.0703125 79.3671875,17.0703125 C84.968778,17.0703125 89.4394364,18.3417842 92.7792969,20.8847656 C96.1191573,23.4277471 97.7890625,26.8906031 97.7890625,31.2734375 Z" id="3"></path>
        </g>
    </g>
</svg>