<?xml version="1.0" encoding="UTF-8"?>
<svg width="160px" height="90px" viewBox="0 0 160 90" version="1.1" xmlns="http://www.w3.org/2000/svg" xmlns:xlink="http://www.w3.org/1999/xlink">
    <!-- Generator: Sketch 58 (84663) - https://sketch.com -->
    <title>two</title>
    <desc>Created with Sketch.</desc>
    <g id="Page-1" stroke="none" stroke-width="1" fill="none" fill-rule="evenodd">
        <g id="a2" fill="#000000" fill-rule="nonzero">
            <path d="M99.0898438,31.9765625 C99.0898438,34.6718885 98.4863342,37.015615 97.2792969,39.0078125 C96.0722596,41.00001 94.4492289,42.8105387 92.4101562,44.4394531 L91.8572244,44.8724946 C89.8484631,46.4165153 87.0679525,48.2584811 83.515625,50.3984375 C77.1874684,54.289082 73.6835971,58.1327935 73.0039062,61.9296875 L89,61.9296875 L89,55.0742188 L99.7226562,55.0742188 L99.0898438,71 L60.4882812,71 C60.4882812,66.2890389 61.0507756,62.4101715 62.1757812,59.3632812 C63.3007869,56.316391 65.0761597,53.5214971 67.5019531,50.9785156 C69.8344468,48.5333411 73.2232739,45.6494033 77.6685297,42.3266215 L78.2070312,41.9257812 C80.6914187,40.0976471 82.5839779,38.3281336 83.8847656,36.6171875 C85.1855534,34.9062414 85.8359375,33.1484465 85.8359375,31.34375 C85.8359375,29.5624911 85.3203177,28.2148483 84.2890625,27.3007812 C83.2578073,26.3867142 81.7812596,25.9296875 79.859375,25.9296875 C77.3749876,25.9296875 75.5293029,26.791007 74.3222656,28.5136719 C73.1152283,30.2363367 72.3945324,33.0429493 72.1601562,36.9335938 L61.15625,36.5117188 C61.2968757,29.9726236 62.9726402,25.0976723 66.1835938,21.8867188 C69.3945473,18.6757652 74.1991868,17.0703125 80.5976562,17.0703125 C86.3398725,17.0703125 90.8574054,18.3886587 94.1503906,21.0253906 C97.4433758,23.6621226 99.0898438,27.3124767 99.0898438,31.9765625 Z" id="2"></path>
        </g>
    </g>
</svg>